<?xml version="1.0" standalone="no"?>
<!DOCTYPE svg PUBLIC "-//W3C//DTD SVG 1.1//EN" "http://www.w3.org/Graphics/SVG/1.1/DTD/svg11.dtd" >
<svg xmlns="http://www.w3.org/2000/svg">
<metadata>Generated by IcoMoon</metadata>
<defs>
<font id="icomoon" horiz-adv-x="1024">
<font-face units-per-em="1024" ascent="960" descent="-64" />
<missing-glyph horiz-adv-x="1024" />
<glyph unicode="&#x20;" horiz-adv-x="512" d="" />
<glyph unicode="&#xe900;" d="M1024 448c0-282.77-229.23-512-512-512s-512 229.23-512 512c0 282.77 229.23 512 512 512s512-229.23 512-512z" />
<glyph unicode="&#xe901;" d="M512 116.19c-5.495 0-11.093 0.171-16.691 0.444-10.912 0.372-19.712 8.923-20.476 19.696l-0.004 0.068-17.852 300.681c-0.048 0.741-0.076 1.607-0.076 2.479 0 10.223 3.793 19.561 10.048 26.682l-0.039-0.046 34.953 40.243c2.447 2.791 6.019 4.544 10.001 4.544s7.554-1.753 9.988-4.529l0.013-0.015 35.055-40.243c6.217-7.080 10.010-16.423 10.010-26.651 0-0.879-0.028-1.752-0.083-2.617l0.006 0.118-17.818-300.646c-0.799-10.826-9.581-19.359-20.442-19.762l-0.038-0.001c-5.393-0.273-11.025-0.444-16.555-0.444z" />
<glyph unicode="&#xe902;" d="M512 510.839c0.003 0 0.006 0 0.009 0 3.94 0 7.474-1.738 9.877-4.49l0.013-0.015 35.055-40.209c6.197-7.048 9.979-16.351 9.979-26.538 0-0.895-0.029-1.783-0.087-2.663l0.006 0.12-17.818-300.612c-0.76-10.727-9.424-19.202-20.164-19.659l-0.043-0.001c-5.666-0.307-11.332-0.444-16.828-0.444s-11.093 0-16.691 0.444c-10.78 0.456-19.447 8.91-20.237 19.557l-0.004 0.070-17.681 300.681c-0.050 0.755-0.079 1.636-0.079 2.523 0 10.182 3.781 19.481 10.016 26.569l-0.039-0.045 34.953 40.209c2.416 2.767 5.95 4.506 9.89 4.506 0.003 0 0.006 0 0.009 0v0zM512.137 511.113c-0.008 0-0.018 0-0.028 0-4.007 0-7.598-1.779-10.027-4.591l-0.014-0.017-35.123-40.209c-6.234-7.148-10.035-16.559-10.035-26.858 0-0.83 0.025-1.655 0.073-2.473l-0.005 0.113 17.852-300.681c0.747-10.877 9.544-19.473 20.44-19.898l0.040-0.001c5.53-0.273 11.127-0.444 16.725-0.444s11.264 0.171 16.828 0.478c10.931 0.409 19.732 8.996 20.476 19.799l0.004 0.066 17.852 300.646c0.045 0.715 0.070 1.55 0.070 2.392 0 10.3-3.802 19.712-10.079 26.909l0.042-0.049-34.987 40.209c-2.455 2.83-6.056 4.609-10.073 4.609-0.059 0-0.117 0-0.176-0.001h0.009z" />
<glyph unicode="&#xe903;" d="M598.118 779.401l-2.048 0.512c1.161-0.239 2.219-0.512 3.413-0.819z" />
<glyph unicode="&#xe904;" d="M596.036 779.81l6.076-1.57c-1.774 0.782-3.831 1.338-5.986 1.563l-0.089 0.008z" />
<glyph unicode="&#xe905;" d="M836.847 543.369c0.512-1.809 0.922-3.618 1.399-5.427-0.229 2.010-0.722 3.845-1.449 5.557l0.049-0.13z" />
<glyph unicode="&#xe906;" d="M836.847 543.369c0.512-1.809 0.922-3.618 1.399-5.427-0.229 2.010-0.722 3.845-1.449 5.557l0.049-0.13z" />
<glyph unicode="&#xe907;" d="M187.017 363.93c-0.444 1.638-0.853 3.413-1.263 4.949 0.238-1.843 0.681-3.514 1.312-5.089l-0.049 0.139z" />
<glyph unicode="&#xe908;" d="M185.754 368.879c0.238-1.843 0.681-3.514 1.312-5.089l-0.049 0.139c-0.444 1.638-0.853 3.413-1.263 4.949z" />
<glyph unicode="&#xe909;" d="M185.754 537.941c0.478 1.809 0.887 3.618 1.399 5.427-0.678-1.582-1.171-3.417-1.391-5.336l-0.009-0.092z" />
<glyph unicode="&#xe90a;" d="M187.153 543.369c-0.678-1.582-1.171-3.417-1.391-5.336l-0.009-0.092c0.478 1.809 0.887 3.618 1.399 5.427z" />
<glyph unicode="&#xe90b;" d="M427.964 779.81c-2.245-0.232-4.302-0.788-6.209-1.622l0.133 0.052 6.076 1.57z" />
<glyph unicode="&#xe90c;" d="M274.33 214.016c-1.278 1.1-2.401 2.321-3.371 3.659l-0.042 0.062c1.116-1.347 2.232-2.56 3.406-3.713l0.007-0.007z" />
<glyph unicode="&#xe90d;" d="M270.916 217.668c1.417-2.007 3.113-3.703 5.055-5.076l0.065-0.044c-1.741 1.673-3.413 3.413-5.12 5.12z" />
<glyph unicode="&#xe90e;" d="M270.78 689.186c1.801 2.558 4.081 4.653 6.726 6.192l0.101 0.054c-2.492-1.946-4.54-4.096-6.827-6.246z" />
<glyph unicode="&#xe90f;" d="M274.91 693.521l-2.867-2.901c0.882 1.062 1.82 2.011 2.835 2.874l0.033 0.027zM277.367 695.535c-3.047-1.816-5.523-4.292-7.286-7.244l-0.052-0.095c2.389 2.492 4.847 4.915 7.339 7.339z" />
<glyph unicode="&#xe910;" d="M753.22 689.186c-2.15 2.185-4.301 4.301-6.485 6.451 2.547-1.777 4.697-3.916 6.431-6.37l0.054-0.081z" />
<glyph unicode="&#xe911;" d="M749.056 693.521c1.068-0.883 2.018-1.833 2.873-2.866l0.029-0.036c-0.956 0.956-1.911 1.946-2.901 2.901zM746.633 695.535c2.492-2.423 4.915-4.847 7.339-7.339-1.807 3.053-4.286 5.532-7.244 7.287l-0.095 0.052z" />
<glyph unicode="&#xe912;" d="M749.67 214.050l3.413 3.413c-1.060-1.237-2.176-2.353-3.372-3.379l-0.041-0.035z" />
<glyph unicode="&#xe913;" d="M753.050 217.634c-1.673-1.707-3.413-3.413-5.086-5.086 1.996 1.404 3.682 3.089 5.043 5.021l0.043 0.065z" />
<glyph unicode="&#xe914;" d="M838.246 368.879c-0.444-1.638-0.819-3.413-1.263-4.949 0.582 1.436 1.025 3.106 1.252 4.845l0.011 0.104z" />
<glyph unicode="&#xe915;" d="M838.246 368.879c-0.444-1.638-0.819-3.413-1.263-4.949 0.582 1.436 1.025 3.106 1.252 4.845l0.011 0.104z" />
<glyph unicode="&#xe916;" d="M736.154 208.828c-1.641 0.014-3.229 0.213-4.752 0.575l0.144-0.029-104.209 11.298c-4.846 0.487-8.598 4.544-8.598 9.478 0 0.268 0.011 0.534 0.033 0.796l-0.002-0.034c3.413 37.547 19.149 176.469 25.771 234.462 0.153 1.32 0.241 2.849 0.241 4.399 0 11.761-5.040 22.344-13.079 29.707l-0.030 0.027-101.888 92.945c-4.667 4.289-10.918 6.918-17.783 6.918s-13.117-2.629-17.802-6.935l0.019 0.017-102.059-92.979c-8.072-7.363-13.118-17.926-13.118-29.667 0-1.574 0.091-3.126 0.267-4.652l-0.017 0.186c6.656-58.027 22.494-196.54 25.941-234.428 0.019-0.228 0.031-0.494 0.031-0.762 0-4.934-3.752-8.991-8.558-9.475l-0.040-0.003-104.209-11.298c-1.379-0.334-2.967-0.532-4.598-0.546h-0.010c-0.043 0-0.093-0.001-0.143-0.001-4.343 0-8.366 1.368-11.662 3.695l0.064-0.043c-1.707 1.673-3.413 3.413-5.086 5.086-2.317 3.241-3.705 7.284-3.705 11.651 0 1.63 0.193 3.215 0.559 4.734l-0.028-0.138 14.746 63.010c0.509 2.087 0.801 4.482 0.801 6.946 0 13.693-9.019 25.279-21.44 29.143l-0.216 0.058-61.952 18.739c-5.888 1.895-10.484 6.313-12.585 11.947l-0.045 0.137c-0.307 1.058-0.546 2.116-0.819 3.174l-0.444 1.775c-0.173 0.982-0.271 2.113-0.271 3.267 0 5.138 1.957 9.818 5.167 13.337l-0.014-0.016 44.373 47.172c5.069 5.462 8.18 12.804 8.18 20.873s-3.111 15.41-8.198 20.892l0.018-0.019-44.373 47.172c-3.175 3.503-5.118 8.172-5.118 13.296 0 1.078 0.086 2.136 0.252 3.167l-0.015-0.113 0.478 1.946c0.307 1.126 0.58 2.287 0.887 3.413 2.192 5.655 6.73 9.981 12.386 11.838l0.141 0.040 61.952 18.705c12.632 4.004 21.626 15.623 21.626 29.343 0 2.425-0.281 4.784-0.812 7.046l0.041-0.208-14.746 63.181c-0.356 1.418-0.56 3.045-0.56 4.72 0 3.814 1.058 7.381 2.898 10.423l-0.051-0.090c2.389 2.458 4.847 4.881 7.339 7.305 2.918 1.779 6.447 2.832 10.222 2.832 1.691 0 3.332-0.211 4.899-0.609l-0.137 0.030 62.976-14.746c2.102-0.52 4.514-0.818 6.997-0.819h0.001c13.676 0.085 25.225 9.093 29.125 21.491l0.059 0.218 18.705 61.918c1.878 5.692 6.106 10.155 11.506 12.309l0.134 0.047 3.925 1.058 2.116 0.512c0.819 0 1.707 0 2.56 0 0.159 0.005 0.346 0.008 0.533 0.008 4.97 0 9.491-1.925 12.858-5.069l-0.011 0.010 47.172-44.373c5.449-5.116 12.802-8.258 20.89-8.258s15.441 3.143 20.906 8.274l-0.016-0.015 47.172 44.373c3.356 3.135 7.877 5.059 12.847 5.059 0.187 0 0.374-0.003 0.56-0.008l-0.027 0.001c0.853 0 1.741 0 2.594 0l2.014-0.512 4.028-1.058c5.517-2.214 9.73-6.673 11.565-12.216l0.040-0.14 18.705-61.918c3.959-12.616 15.508-21.624 29.174-21.709h0.010c2.428 0.012 4.78 0.31 7.033 0.862l-0.206-0.043 63.010 14.746c1.434 0.369 3.080 0.58 4.775 0.58 3.782 0 7.319-1.054 10.332-2.883l-0.088 0.050c2.458-2.389 4.915-4.847 7.339-7.339 1.758-2.959 2.797-6.524 2.797-10.331 0-1.663-0.198-3.28-0.572-4.828l0.029 0.14-14.746-62.976c-0.49-2.055-0.771-4.414-0.771-6.838 0-13.72 8.994-25.34 21.409-29.284l0.218-0.060 61.952-18.705c5.809-1.896 10.352-6.238 12.481-11.777l0.046-0.136c0.307-1.126 0.58-2.253 0.887-3.413l0.478-1.98c0.149-0.912 0.234-1.964 0.234-3.035 0-5.118-1.942-9.783-5.13-13.297l0.015 0.017-44.373-47.172c-5.069-5.462-8.18-12.804-8.18-20.873s3.111-15.41 8.198-20.892l-0.018 0.019 44.373-47.172c3.194-3.508 5.15-8.191 5.15-13.332 0-1.15-0.098-2.277-0.286-3.374l0.017 0.118-0.478-1.946c-0.273-0.99-0.512-2.014-0.785-3.004-2.145-5.77-6.742-10.188-12.489-12.044l-0.14-0.039-61.952-18.739c-12.638-3.922-21.657-15.508-21.657-29.201 0-2.464 0.292-4.859 0.843-7.154l-0.042 0.208 14.746-63.010c0.337-1.38 0.531-2.964 0.531-4.593 0-4.385-1.401-8.442-3.78-11.749l0.041 0.060c-1.673-1.673-3.413-3.413-5.052-5.052-3.22-2.345-7.241-3.771-11.593-3.823h-0.013z" />
<glyph unicode="&#xe917;" d="M593.442 779.947v-0.273c0.378 0.025 0.819 0.039 1.263 0.039s0.885-0.014 1.323-0.042l-0.060 0.003 2.048-0.512 3.994-1.024c5.487-2.199 9.677-6.635 11.497-12.149l0.040-0.139 18.705-61.918c3.949-12.688 15.573-21.745 29.317-21.777h0.004c2.483 0.005 4.896 0.29 7.214 0.827l-0.216-0.042 63.010 14.78c1.4 0.334 3.011 0.532 4.667 0.546h0.010c3.777-0.004 7.31-1.044 10.332-2.85l-0.092 0.051c2.492-2.423 4.949-4.881 7.305-7.27 1.761-2.937 2.803-6.481 2.803-10.267 0-1.662-0.201-3.276-0.579-4.821l0.029 0.138-14.746-62.976c-0.504-2.084-0.793-4.476-0.793-6.936 0-13.766 9.055-25.418 21.534-29.323l0.218-0.059 61.952-18.739c5.75-1.88 10.25-6.168 12.379-11.642l0.046-0.134c0.307-1.126 0.58-2.253 0.887-3.413l0.512-2.014c0.142-0.889 0.223-1.915 0.223-2.959 0-5.108-1.938-9.764-5.119-13.271l0.015 0.017-44.373-47.172c-5.127-5.475-8.275-12.857-8.275-20.975s3.149-15.5 8.291-20.992l44.357-47.155c3.185-3.496 5.136-8.165 5.136-13.29 0-1.117-0.093-2.212-0.271-3.278l0.016 0.115c0-0.614-0.341-1.229-0.478-1.877s-0.512-2.048-0.785-3.038c-2.149-5.737-6.713-10.134-12.421-12.009l-0.14-0.040-61.952-18.705c-12.696-3.964-21.751-15.615-21.751-29.382 0-2.46 0.289-4.852 0.835-7.145l-0.042 0.209 14.746-63.010c0.346-1.384 0.544-2.973 0.544-4.609 0-4.315-1.381-8.308-3.724-11.561l0.040 0.059c-1.911-1.98-3.413-3.413-5.052-5.086-3.246-2.333-7.291-3.746-11.663-3.789h-0.010c-1.642 0.017-3.229 0.215-4.754 0.575l0.146-0.029-104.209 11.298c-4.776 0.48-8.474 4.479-8.474 9.342 0 0.316 0.016 0.629 0.046 0.937l-0.003-0.039c3.413 37.82 19.149 176.572 25.737 234.462 0.157 1.332 0.246 2.875 0.246 4.439 0 11.749-5.043 22.32-13.083 29.666l-0.031 0.028-101.888 92.979c-4.704 4.288-10.988 6.915-17.886 6.915s-13.182-2.626-17.907-6.934l0.021 0.019-102.025-92.979c-8.105-7.394-13.171-18.001-13.171-29.791 0-1.53 0.085-3.039 0.251-4.525l-0.017 0.183c6.827-58.027 22.528-196.642 25.941-234.428 0.027-0.268 0.043-0.58 0.043-0.895 0-4.875-3.716-8.881-8.469-9.342l-0.038-0.003-104.209-11.298c-1.369-0.334-2.945-0.532-4.564-0.546h-0.010c-4.367 0.040-8.399 1.44-11.702 3.797l0.062-0.042c-1.502 1.468-3.106 3.106-5.052 5.086-2.323 3.203-3.716 7.212-3.716 11.546 0 1.632 0.197 3.217 0.57 4.734l-0.028-0.136 14.746 63.010c0.504 2.084 0.793 4.476 0.793 6.936 0 13.766-9.055 25.418-21.534 29.323l-0.218 0.059-61.952 18.705c-5.836 1.903-10.39 6.29-12.482 11.879l-0.045 0.136c-0.307 1.058-0.58 2.116-0.853 3.174l-0.41 1.741c-0.173 0.979-0.271 2.105-0.271 3.255 0 5.103 1.944 9.752 5.132 13.247l-0.014-0.015 44.373 47.172c5.127 5.475 8.275 12.857 8.275 20.975s-3.149 15.5-8.291 20.992l-44.357 47.155c-3.166 3.491-5.104 8.147-5.104 13.255 0 1.044 0.081 2.069 0.237 3.070l-0.014-0.111 0.512 1.98c0.273 1.126 0.58 2.287 0.887 3.413 2.162 5.624 6.666 9.927 12.285 11.771l0.139 0.040 61.952 18.739c12.696 3.964 21.751 15.615 21.751 29.382 0 2.46-0.289 4.852-0.835 7.145l0.042-0.209-14.78 62.805c-0.356 1.416-0.561 3.042-0.561 4.716 0 3.761 1.033 7.281 2.831 10.292l-0.051-0.092c2.355 2.423 4.847 4.881 7.305 7.27 2.926 1.771 6.459 2.823 10.237 2.833h0.003c1.665-0.014 3.276-0.212 4.824-0.575l-0.148 0.029 63.010-14.78c2.101-0.495 4.515-0.781 6.994-0.785h0.003c13.748 0.032 25.372 9.089 29.262 21.559l0.059 0.218 18.705 61.918c1.857 5.644 6.033 10.077 11.371 12.241l0.132 0.047 6.007 1.536c0.388 0.024 0.841 0.038 1.297 0.038s0.909-0.014 1.359-0.041l-0.062 0.003c0.184 0.007 0.4 0.010 0.617 0.010 4.849 0 9.265-1.859 12.572-4.903l-0.013 0.012 47.206-44.373c5.473-5.117 12.849-8.259 20.958-8.259s15.485 3.142 20.975 8.275l-0.018-0.016 47.411 44.373c3.332 3.114 7.822 5.026 12.758 5.026 0.195 0 0.389-0.003 0.583-0.009l-0.028 0.001v0.273zM593.579 779.947c-0.192 0.007-0.418 0.011-0.645 0.011-5.028 0-9.604-1.938-13.020-5.108l0.012 0.011-47.172-44.373c-5.42-5.095-12.738-8.226-20.787-8.226s-15.367 3.131-20.803 8.24l0.016-0.015-47.172 44.373c-3.404 3.159-7.98 5.097-13.008 5.097-0.227 0-0.453-0.004-0.678-0.012l0.033 0.001c-0.853 0-1.741 0-2.594 0l-6.076-1.57c-5.564-2.219-9.81-6.721-11.634-12.318l-0.040-0.14-18.534-61.918c-3.852-12.601-15.379-21.608-29.009-21.608-2.484 0-4.899 0.299-7.209 0.864l0.207-0.043-62.976 14.609c-1.425 0.347-3.062 0.546-4.745 0.546v0c-3.78-0.029-7.309-1.078-10.334-2.885l0.094 0.052c-2.492-2.423-4.949-4.847-7.339-7.339-1.799-2.986-2.863-6.59-2.863-10.443 0-1.659 0.197-3.273 0.57-4.818l-0.028 0.14 14.78-63.010c0.505-2.075 0.795-4.458 0.795-6.908 0-13.646-8.988-25.193-21.367-29.045l-0.215-0.058-61.952-18.705c-5.841-1.906-10.41-6.273-12.549-11.844l-0.046-0.136c-0.512-1.809-0.922-3.618-1.399-5.427-0.152-0.922-0.238-1.986-0.238-3.069 0-5.147 1.957-9.836 5.168-13.365l-0.014 0.016 44.373-47.206c5.088-5.423 8.213-12.74 8.213-20.787s-3.125-15.364-8.228-20.804l0.015 0.016-44.373-47.172c-3.215-3.531-5.185-8.247-5.185-13.423 0-1.154 0.098-2.286 0.286-3.387l-0.017 0.118c0.41-1.638 0.819-3.413 1.263-4.949 2.176-5.809 6.804-10.259 12.59-12.146l0.142-0.040 61.952-18.705c12.594-3.909 21.582-15.456 21.582-29.103 0-2.45-0.29-4.833-0.837-7.115l0.042 0.207-14.78-63.010c-0.342-1.391-0.538-2.987-0.538-4.63 0-4.396 1.404-8.464 3.787-11.78l-0.041 0.060c1.707-1.741 3.413-3.413 5.12-5.12 3.28-2.37 7.376-3.799 11.804-3.823h0.006c1.647 0 3.248 0.199 4.779 0.575l-0.137-0.028 104.175 11.264c4.929 0.5 8.743 4.628 8.743 9.647 0 0.305-0.014 0.606-0.042 0.904l0.003-0.038c-3.413 38.229-19.797 181.111-25.941 234.462-0.171 1.386-0.269 2.989-0.269 4.616 0 11.692 5.042 22.206 13.069 29.488l0.033 0.030 102.025 92.979c4.649 4.256 10.869 6.864 17.698 6.864s13.049-2.608 17.718-6.882l-0.020 0.018 101.649-93.082c8.060-7.317 13.101-17.835 13.101-29.531 0-1.622-0.097-3.221-0.285-4.792l0.019 0.19c-6.076-53.316-22.323-196.267-25.771-234.496-0.025-0.259-0.039-0.561-0.039-0.866 0-5.019 3.814-9.147 8.702-9.644l0.041-0.003 104.175-11.264c1.394-0.347 2.995-0.546 4.642-0.546v0c4.434 0.024 8.53 1.453 11.87 3.864l-0.060-0.041c1.741 1.673 3.413 3.413 5.086 5.086 2.35 3.289 3.757 7.391 3.757 11.823 0 1.617-0.187 3.191-0.542 4.7l0.027-0.139-14.78 63.010c-0.504 2.072-0.793 4.452-0.793 6.898 0 13.658 9.003 25.213 21.399 29.055l0.215 0.058 61.918 18.705c5.928 1.927 10.556 6.376 12.686 12.047l0.046 0.138c0.444 1.638 0.819 3.413 1.263 4.949 0.171 0.983 0.269 2.114 0.269 3.268 0 5.176-1.969 9.891-5.199 13.439l0.014-0.016-44.373 47.172c-5.088 5.423-8.213 12.74-8.213 20.787s3.125 15.364 8.228 20.804l-0.015-0.016 44.373 47.206c3.196 3.513 5.154 8.202 5.154 13.349 0 1.083-0.087 2.146-0.254 3.183l0.015-0.114c-0.478 1.809-0.887 3.618-1.399 5.427-2.185 5.708-6.754 10.075-12.454 11.941l-0.141 0.040-61.918 18.705c-12.611 3.899-21.614 15.454-21.614 29.112 0 2.447 0.289 4.826 0.835 7.106l-0.042-0.207 14.78 63.010c0.344 1.405 0.541 3.019 0.541 4.678 0 3.853-1.064 7.457-2.914 10.536l0.052-0.093c-2.423 2.492-4.847 4.915-7.339 7.339-2.931 1.755-6.46 2.804-10.232 2.833h-0.008c-1.683 0-3.319-0.199-4.887-0.575l0.142 0.029-62.976-14.746c-2.045-0.503-4.396-0.801-6.815-0.819h-0.012c-0.023 0-0.051 0-0.078 0-13.743 0-25.351 9.135-29.085 21.665l-0.055 0.215-18.739 61.781c-1.863 5.737-6.11 10.24-11.54 12.411l-0.134 0.047-6.076 1.57c-0.853 0-1.741 0-2.594 0z" />
</font>
</defs>
</svg>
